<svg width="65" height="65" viewBox="0 0 65 65" fill="none" xmlns="http://www.w3.org/2000/svg">
<path d="M12.1354 0.625C9.08266 0.625 6.15494 1.8377 3.99632 3.99632C1.8377 6.15494 0.625 9.08266 0.625 12.1354V52.8646C0.625 55.9173 1.8377 58.8451 3.99632 61.0037C6.15494 63.1623 9.08266 64.375 12.1354 64.375H52.8646C55.9173 64.375 58.8451 63.1623 61.0037 61.0037C63.1623 58.8451 64.375 55.9173 64.375 52.8646V12.1354C64.375 9.08266 63.1623 6.15494 61.0037 3.99632C58.8451 1.8377 55.9173 0.625 52.8646 0.625H12.1354ZM51.2 22.8667L27.2796 46.7623C26.7815 47.2597 26.1064 47.5391 25.4025 47.5391C24.6986 47.5391 24.0235 47.2597 23.5254 46.7623L13.8 37.0333C13.3308 36.5298 13.0754 35.8638 13.0875 35.1757C13.0996 34.4875 13.3784 33.8309 13.8651 33.3443C14.3518 32.8576 15.0083 32.5788 15.6965 32.5667C16.3846 32.5545 17.0506 32.81 17.5542 33.2792L25.406 41.1275L47.4458 19.109C47.6928 18.8625 47.9859 18.667 48.3084 18.5338C48.6309 18.4006 48.9765 18.3322 49.3254 18.3325C49.6744 18.3328 50.0198 18.4019 50.3421 18.5357C50.6643 18.6695 50.957 18.8655 51.2035 19.1125C51.45 19.3595 51.6455 19.6526 51.7787 19.9751C51.9119 20.2976 51.9803 20.6432 51.98 20.9921C51.9797 21.341 51.9106 21.6865 51.7768 22.0087C51.643 22.331 51.447 22.6237 51.2 22.8702V22.8667Z" fill="#DE4C4A"/>
</svg>
