<svg width="11" height="11" viewBox="0 0 11 11" fill="none" xmlns="http://www.w3.org/2000/svg">
<path d="M0.90384 0.196699C0.810072 0.102931 0.682895 0.0502524 0.550287 0.0502524C0.417679 0.0502524 0.290502 0.102931 0.196733 0.196699C0.102965 0.290467 0.0502866 0.417645 0.0502866 0.550253C0.0502866 0.682861 0.102965 0.810038 0.196733 0.903806L4.79293 5.5L0.196733 10.0962C0.102965 10.19 0.0502866 10.3171 0.0502866 10.4497C0.0502866 10.5824 0.102965 10.7095 0.196733 10.8033C0.290502 10.8971 0.417679 10.9497 0.550287 10.9497C0.682895 10.9497 0.810072 10.8971 0.90384 10.8033L5.50003 6.20711L10.0962 10.8033C10.19 10.8971 10.3172 10.9497 10.4498 10.9497C10.5824 10.9497 10.7096 10.8971 10.8033 10.8033C10.8971 10.7095 10.9498 10.5824 10.9498 10.4497C10.9498 10.3171 10.8971 10.19 10.8033 10.0962L6.20714 5.5L10.8033 0.903806C10.8971 0.810038 10.9498 0.682861 10.9498 0.550253C10.9498 0.417644 10.8971 0.290467 10.8033 0.196699C10.7096 0.102931 10.5824 0.0502521 10.4498 0.0502521C10.3172 0.0502521 10.19 0.102931 10.0962 0.196699L5.50003 4.79289L0.90384 0.196699Z" fill="#DE4C4A"/>
</svg>
