<svg width="47" height="47" viewBox="0 0 47 47" fill="none" xmlns="http://www.w3.org/2000/svg">
<g clip-path="url(#clip0_11_20)">
<path d="M41.1254 0H5.87463C2.63604 0.00734375 0.0111992 2.63218 0 5.875V41.125C0 44.3563 2.6432 47 5.87463 47H41.1254C44.3566 47 47 44.3563 47 41.125V5.875C47 2.64375 44.3568 0 41.1254 0Z" fill="#DE4C4A"/>
<path d="M9.93848 22.1785C10.7579 21.7 28.3608 11.4704 28.7633 11.2334C29.1657 10.9993 29.1875 10.2794 28.7339 10.0189C28.2833 9.76002 27.4273 9.26817 27.1098 9.07944C26.8869 8.95681 26.6361 8.89398 26.3817 8.89707C26.1273 8.90015 25.878 8.96906 25.6581 9.09706C25.4329 9.2287 10.3921 17.9645 9.89019 18.251C9.2858 18.5966 8.5439 18.6024 7.9441 18.251L0 13.5894V17.5519C1.93141 18.6902 6.7412 21.5174 7.90591 22.1831C8.601 22.5782 9.26689 22.5695 9.93995 22.1787" fill="white"/>
<path d="M9.93848 29.6706C10.7579 29.192 28.3608 18.9623 28.7633 18.7253C29.1657 18.4912 29.1875 17.7713 28.7339 17.5108C28.2833 17.2519 27.4273 16.7601 27.1098 16.5714C26.8869 16.4487 26.6361 16.3859 26.3817 16.389C26.1273 16.3921 25.878 16.461 25.6581 16.589C25.4329 16.7206 10.3921 25.4562 9.89019 25.743C9.2858 26.0885 8.5439 26.0942 7.9441 25.743L0 21.0813V25.0438C1.93141 26.1821 6.7412 29.0093 7.90591 29.675C8.601 30.0701 9.26689 30.0613 9.93995 29.6706" fill="white"/>
<path d="M9.93848 37.6307C10.7579 37.152 28.3608 26.9224 28.7633 26.6854C29.1657 26.4513 29.1875 25.7314 28.7339 25.4709C28.2833 25.212 27.4273 24.7204 27.1098 24.5314C26.8869 24.4088 26.6361 24.346 26.3817 24.3491C26.1273 24.3522 25.878 24.4211 25.6581 24.5491C25.4329 24.6807 10.3921 33.4165 9.89019 33.703C9.2858 34.0486 8.5439 34.0544 7.9441 33.703L0 29.0414V33.0039C1.93141 34.1422 6.7412 36.9695 7.90591 37.6351C8.601 38.0302 9.26689 38.0215 9.93995 37.6308" fill="white"/>
</g>
<defs>
<clipPath id="clip0_11_20">
<rect width="47" height="47" fill="white"/>
</clipPath>
</defs>
</svg>
